<mxfile host="app.diagrams.net" modified="2022-05-07T18:51:50.610Z" agent="5.0 (Windows NT 10.0; Win64; x64) AppleWebKit/537.36 (KHTML, like Gecko) Chrome/101.0.4951.54 Safari/537.36" etag="mPir8Hy2KrUqwhmMaZ3s" version="18.0.2" type="github">
  <diagram id="kgpKYQtTHZ0yAKxKKP6v" name="Page-1">
    <mxGraphModel dx="1038" dy="579" grid="1" gridSize="10" guides="1" tooltips="1" connect="1" arrows="1" fold="1" page="1" pageScale="1" pageWidth="850" pageHeight="1100" math="0" shadow="0">
      <root>
        <mxCell id="0" />
        <mxCell id="1" parent="0" />
        <mxCell id="3nuBFxr9cyL0pnOWT2aG-5" value=":일기 선택화면" style="shape=umlLifeline;perimeter=lifelinePerimeter;container=1;collapsible=0;recursiveResize=0;rounded=0;shadow=0;strokeWidth=1;" parent="1" vertex="1">
          <mxGeometry x="170" y="80" width="100" height="280" as="geometry" />
        </mxCell>
        <mxCell id="3nuBFxr9cyL0pnOWT2aG-6" value="" style="points=[];perimeter=orthogonalPerimeter;rounded=0;shadow=0;strokeWidth=1;" parent="3nuBFxr9cyL0pnOWT2aG-5" vertex="1">
          <mxGeometry x="45" y="80" width="10" height="150" as="geometry" />
        </mxCell>
        <mxCell id="MqwUTq4gCY0mS1v4wUT5-9" value="위치 및 일기 작성" style="verticalAlign=bottom;endArrow=block;shadow=0;strokeWidth=1;" edge="1" parent="3nuBFxr9cyL0pnOWT2aG-5">
          <mxGeometry relative="1" as="geometry">
            <mxPoint x="185" y="90" as="sourcePoint" />
            <mxPoint x="60" y="90" as="targetPoint" />
          </mxGeometry>
        </mxCell>
        <mxCell id="3nuBFxr9cyL0pnOWT2aG-9" value="일기선택" style="verticalAlign=bottom;endArrow=block;entryX=1;entryY=0;shadow=0;strokeWidth=1;" parent="1" source="3nuBFxr9cyL0pnOWT2aG-6" target="3nuBFxr9cyL0pnOWT2aG-4" edge="1">
          <mxGeometry relative="1" as="geometry">
            <mxPoint x="240" y="200" as="sourcePoint" />
          </mxGeometry>
        </mxCell>
        <mxCell id="3nuBFxr9cyL0pnOWT2aG-10" value="선택페이지 전환" style="verticalAlign=bottom;endArrow=open;dashed=1;endSize=8;shadow=0;strokeWidth=1;" parent="1" source="3nuBFxr9cyL0pnOWT2aG-4" target="3nuBFxr9cyL0pnOWT2aG-6" edge="1">
          <mxGeometry relative="1" as="geometry">
            <mxPoint x="240" y="257" as="targetPoint" />
          </mxGeometry>
        </mxCell>
        <mxCell id="MqwUTq4gCY0mS1v4wUT5-1" value=":일기 작성 페이지" style="shape=umlLifeline;perimeter=lifelinePerimeter;container=1;collapsible=0;recursiveResize=0;rounded=0;shadow=0;strokeWidth=1;" vertex="1" parent="1">
          <mxGeometry x="310" y="80" width="100" height="330" as="geometry" />
        </mxCell>
        <mxCell id="MqwUTq4gCY0mS1v4wUT5-2" value="" style="points=[];perimeter=orthogonalPerimeter;rounded=0;shadow=0;strokeWidth=1;" vertex="1" parent="MqwUTq4gCY0mS1v4wUT5-1">
          <mxGeometry x="45" y="80" width="10" height="160" as="geometry" />
        </mxCell>
        <mxCell id="MqwUTq4gCY0mS1v4wUT5-10" value="일기저장 및 위치저장" style="verticalAlign=bottom;endArrow=open;dashed=1;endSize=8;exitX=1;exitY=0.95;shadow=0;strokeWidth=1;" edge="1" parent="MqwUTq4gCY0mS1v4wUT5-1">
          <mxGeometry relative="1" as="geometry">
            <mxPoint x="45" y="220" as="targetPoint" />
            <mxPoint x="-80" y="220" as="sourcePoint" />
          </mxGeometry>
        </mxCell>
        <mxCell id="MqwUTq4gCY0mS1v4wUT5-13" value="" style="shape=umlDestroy;whiteSpace=wrap;html=1;strokeWidth=3;" vertex="1" parent="MqwUTq4gCY0mS1v4wUT5-1">
          <mxGeometry x="35" y="300" width="30" height="30" as="geometry" />
        </mxCell>
        <mxCell id="3nuBFxr9cyL0pnOWT2aG-4" value="" style="points=[];perimeter=orthogonalPerimeter;rounded=0;shadow=0;strokeWidth=1;" parent="1" vertex="1">
          <mxGeometry x="80" y="160" width="10" height="280" as="geometry" />
        </mxCell>
        <mxCell id="MqwUTq4gCY0mS1v4wUT5-7" value="" style="edgeStyle=orthogonalEdgeStyle;rounded=0;orthogonalLoop=1;jettySize=auto;html=1;" edge="1" parent="1" target="3nuBFxr9cyL0pnOWT2aG-4">
          <mxGeometry relative="1" as="geometry">
            <mxPoint x="85" y="130" as="sourcePoint" />
          </mxGeometry>
        </mxCell>
        <mxCell id="MqwUTq4gCY0mS1v4wUT5-3" value="&lt;font style=&quot;vertical-align: inherit;&quot;&gt;&lt;font style=&quot;vertical-align: inherit;&quot;&gt;작성자&lt;/font&gt;&lt;/font&gt;" style="shape=umlActor;verticalLabelPosition=bottom;verticalAlign=top;html=1;" vertex="1" parent="1">
          <mxGeometry x="70" y="60" width="30" height="50" as="geometry" />
        </mxCell>
        <mxCell id="MqwUTq4gCY0mS1v4wUT5-4" value=":목록페이지" style="shape=umlLifeline;perimeter=lifelinePerimeter;container=1;collapsible=0;recursiveResize=0;rounded=0;shadow=0;strokeWidth=1;" vertex="1" parent="1">
          <mxGeometry x="450" y="80" width="100" height="380" as="geometry" />
        </mxCell>
        <mxCell id="MqwUTq4gCY0mS1v4wUT5-5" value="" style="points=[];perimeter=orthogonalPerimeter;rounded=0;shadow=0;strokeWidth=1;" vertex="1" parent="MqwUTq4gCY0mS1v4wUT5-4">
          <mxGeometry x="45" y="75" width="10" height="175" as="geometry" />
        </mxCell>
        <mxCell id="MqwUTq4gCY0mS1v4wUT5-12" value="목록 생성" style="verticalAlign=bottom;endArrow=open;dashed=1;endSize=8;exitX=1;exitY=0.95;shadow=0;strokeWidth=1;" edge="1" parent="MqwUTq4gCY0mS1v4wUT5-4">
          <mxGeometry relative="1" as="geometry">
            <mxPoint x="40" y="220" as="targetPoint" />
            <mxPoint x="-85" y="220" as="sourcePoint" />
          </mxGeometry>
        </mxCell>
        <mxCell id="MqwUTq4gCY0mS1v4wUT5-14" value="" style="shape=umlDestroy;whiteSpace=wrap;html=1;strokeWidth=3;" vertex="1" parent="MqwUTq4gCY0mS1v4wUT5-4">
          <mxGeometry x="35" y="350" width="30" height="30" as="geometry" />
        </mxCell>
        <mxCell id="MqwUTq4gCY0mS1v4wUT5-6" value="" style="shape=umlDestroy;whiteSpace=wrap;html=1;strokeWidth=3;" vertex="1" parent="1">
          <mxGeometry x="205" y="350" width="30" height="30" as="geometry" />
        </mxCell>
        <mxCell id="MqwUTq4gCY0mS1v4wUT5-11" value="DB저장" style="verticalAlign=bottom;endArrow=block;shadow=0;strokeWidth=1;" edge="1" parent="1">
          <mxGeometry relative="1" as="geometry">
            <mxPoint x="488" y="180" as="sourcePoint" />
            <mxPoint x="363" y="180" as="targetPoint" />
          </mxGeometry>
        </mxCell>
        <mxCell id="MqwUTq4gCY0mS1v4wUT5-15" value="일기 생성" style="verticalAlign=bottom;endArrow=open;dashed=1;endSize=8;shadow=0;strokeWidth=1;entryX=0.007;entryY=0.06;entryDx=0;entryDy=0;entryPerimeter=0;" edge="1" parent="1" target="MqwUTq4gCY0mS1v4wUT5-14">
          <mxGeometry relative="1" as="geometry">
            <mxPoint x="215" y="430" as="targetPoint" />
            <mxPoint x="90" y="430" as="sourcePoint" />
          </mxGeometry>
        </mxCell>
      </root>
    </mxGraphModel>
  </diagram>
</mxfile>
